# xmcd
#
# Track frame offsets:
#	150
#	18344
#	32323
#	46866
#	61468
#	79742
#	97140
#	115195
#	130992
#	147693
#	164581
#	181577
#	197213
#	214878
#	231074
#	245843
#	262885
#	281652
#	302469
#	317357
#	330064
#	343920
#
# Disc length: 4756
#
# Revision: 1
# Processed by: cddbd v1.5.1PL0 Copyright (c) Steve Scherf et al.
# Submitted via: ExactAudioCopy v0.95a4
# Normalized: r0:TDELIM( - )
#
DISCID=37129216
DTITLE=Various Artist - VIVA Summer Hits 2001
DYEAR=2001
DGENRE=Dance
TTITLE0=jennifer lopez - aint it funny
TTITLE1=yamboo - pata pata
TTITLE2=passion fruit - bongo man
TTITLE3=ricky martin - loaded
TTITLE4=bellini - brazil
TTITLE5=s club 7 - dont stop movin
TTITLE6=sarrah connor - lets get back to bed boy
TTITLE7=aguillera kim mya - lady marmolade
TTITLE8=daddy dj - daddy dj
TTITLE9=emma bunton - what took you so long
TTITLE10=geri halliwell - its raining men
TTITLE11=atb - let you go
TTITLE12=shaggy - angel
TTITLE13=bosson - one in a million
TTITLE14=presiozo feat marvin - emergency 911
TTITLE15=liz abella - ritmo de la vida
TTITLE16=dante thomas - miss california
TTITLE17=eros ramazotti - lombre del gigante
TTITLE18=hermes house band - country roads
TTITLE19=right said fred - mojive
TTITLE20=atomic kitten - whole again
TTITLE21=me and my - la la superstar
EXTD=
EXTT0=
EXTT1=
EXTT2=
EXTT3=
EXTT4=
EXTT5=
EXTT6=
EXTT7=
EXTT8=
EXTT9=
EXTT10=
EXTT11=
EXTT12=
EXTT13=
EXTT14=
EXTT15=
EXTT16=
EXTT17=
EXTT18=
EXTT19=
EXTT20=
EXTT21=
PLAYORDER=
